<svg width="207" height="55" viewBox="0 0 207 55" fill="none" xmlns="http://www.w3.org/2000/svg">
<path d="M27.3753 23.2726C25.3671 26.7698 17.166 27.6569 11.9318 25.0855C6.69758 22.5141 9.05556 17.4998 9.05556 17.4998C7.21582 18.8112 1.94273 21.5626 1.03582 23.8512C0.349149 25.6126 0.0641173 30.3312 -0.000662575 33.9441C-0.0524865 37.6983 0.154809 42.6612 1.37267 44.9112C3.57519 48.9998 15.6372 54.1298 19.1353 54.1298H19.213C22.7112 54.0526 35.1748 47.0969 36.7036 43.1626C37.5069 41.0926 37.8826 36.5155 37.9085 32.8898C37.9085 29.2641 37.6364 24.5841 36.1076 22.9126C34.4622 21.1126 26.3259 16.6641 26.3259 16.6641C26.3259 16.6641 29.3058 19.8912 27.3624 23.2855L27.3753 23.2726Z" fill="url(#paint0_linear_197_428)"/>
<path d="M16.9325 9.22014C16.0255 8.21729 14.4708 8.12729 13.4473 9.02729L12.5663 9.81157C11.5557 10.7116 11.465 12.2544 12.3719 13.2701L13.1623 14.1444C14.0692 15.1473 15.6239 15.2373 16.6474 14.3373L17.5284 13.553C18.539 12.653 18.6297 11.1101 17.7228 10.0944L16.9325 9.22014ZM30.2512 2.753L29.0463 1.41586C27.4657 -0.332713 24.7449 -0.486999 22.9829 1.08157L21.9982 1.95586C20.2362 3.52443 20.0808 6.22443 21.6614 7.973L22.8663 9.31014C24.4469 11.0587 27.1677 11.213 28.9297 9.64443L29.9143 8.77014C31.6763 7.20157 31.8318 4.50157 30.2512 2.753ZM20.6119 19.4287C20.1974 18.8501 19.3811 18.7216 18.7981 19.133L18.5519 19.3001C17.9689 19.7116 17.8394 20.5216 18.254 21.1001L18.4224 21.3444C18.837 21.923 19.6532 22.0516 20.2362 21.6401L20.4824 21.473C21.0654 21.0616 21.195 20.2516 20.7804 19.673L20.6119 19.4287Z" fill="url(#paint1_linear_197_428)"/>
<path d="M36.55 23.543C31.7952 26.0501 23.5681 28.9944 18.9688 30.1644V54.1173C18.9688 54.1173 19.0983 54.1301 19.1501 54.1301H19.2279C22.726 54.053 35.1896 47.0973 36.7184 43.163C37.5217 41.093 37.8974 36.5158 37.9233 32.8901C37.9233 29.6373 37.7031 25.5615 36.55 23.543Z" fill="url(#paint2_linear_197_428)"/>
<path d="M1.03582 23.8623C0.349149 25.6108 0.0641173 30.3294 -0.000662575 33.9423C-0.0524865 37.6966 0.154809 42.6594 1.37267 44.9094C3.53632 48.9337 15.2485 53.9608 18.9539 54.1151V30.188C14.3546 28.9923 6.36072 26.0866 1.2172 23.4766C1.13946 23.6051 1.07468 23.7337 1.02286 23.8623H1.03582Z" fill="url(#paint3_linear_197_428)"/>
<path d="M17.075 12.201L16.9584 12.2781C16.6734 12.4839 16.2718 12.4196 16.0645 12.1367L15.9867 12.021C15.7794 11.7381 15.8442 11.3396 16.1292 11.1339L16.2458 11.0567C16.5309 10.851 16.9325 10.9153 17.1398 11.1981L17.2175 11.3139C17.4248 11.5967 17.3601 11.9953 17.075 12.201ZM20.314 20.7767L20.2492 20.8281C20.0938 20.9439 19.8606 20.9053 19.744 20.751L19.6921 20.6867C19.5755 20.5324 19.6144 20.301 19.7699 20.1853L19.8346 20.1339C19.9901 20.0181 20.2233 20.0567 20.3399 20.211L20.3918 20.2753C20.5084 20.4296 20.4695 20.661 20.314 20.7767ZM29.3443 6.54385L29.0982 6.72385C28.6447 7.04528 28.0099 6.94242 27.673 6.49242L27.4916 6.24814C27.1677 5.79814 27.2714 5.16814 27.7248 4.83385L27.971 4.65385C28.4245 4.33242 29.0593 4.43528 29.3962 4.88528L29.5775 5.12957C29.9014 5.57957 29.7978 6.20957 29.3443 6.54385Z" fill="#F8FFF7"/>
<path d="M56.1604 45.8247V37.2876C56.1604 37.1718 56.1345 37.0561 56.0826 36.9533L49.3196 24.2504C49.0605 23.7747 49.4103 23.209 49.9545 23.209H55.4867C55.7847 23.209 56.0567 23.389 56.1604 23.6718L57.9872 28.4676C58.635 30.1004 59.0625 31.2833 59.5678 32.7876H59.6326C60.099 31.3733 60.5654 30.0747 61.1484 28.4676L62.8975 23.6847C63.0011 23.4018 63.2732 23.2218 63.5712 23.2218H68.935C69.4791 23.2218 69.8289 23.8133 69.5569 24.2761L62.5347 36.7218C62.4699 36.8247 62.444 36.9533 62.444 37.069V45.8247C62.444 46.2233 62.1201 46.5318 61.7314 46.5318H56.873C56.4713 46.5318 56.1604 46.2104 56.1604 45.8247Z" fill="url(#paint4_linear_197_428)"/>
<path d="M78.6545 46.5305L78.3176 45.0391H78.201C77.0091 46.4019 75.2989 46.9162 73.4462 46.9162C69.9351 46.9162 67.7715 44.4091 67.7715 41.5676C67.7715 37.0033 71.9044 34.9719 77.7346 34.9591V34.8048C77.7346 34.1105 77.2034 33.3519 74.9232 33.3519C73.4721 33.3519 71.9563 33.7633 70.8291 34.2519C70.4275 34.4319 69.974 34.2133 69.8574 33.7891L69.1448 31.2433C69.0541 30.9091 69.2096 30.5491 69.5335 30.4076C70.8032 29.8419 73.0316 29.1348 76.0763 29.1348C81.9842 29.1348 84.0183 32.4005 84.0183 36.6433V42.3905C84.0183 43.6505 84.0701 44.8462 84.1737 45.7333C84.2256 46.1576 83.8887 46.5305 83.4612 46.5305H78.6415H78.6545ZM77.9419 38.7519C75.3766 38.7519 73.9256 39.4591 73.9256 40.9505C73.9256 42.0433 74.6382 42.5962 75.7005 42.5962C76.5945 42.5962 77.5662 41.9662 77.8512 41.0276C77.916 40.7705 77.929 40.4619 77.929 40.1533V38.7648L77.9419 38.7519Z" fill="url(#paint5_linear_197_428)"/>
<path d="M104.565 21.9609C104.966 21.9609 105.277 22.2824 105.277 22.6681V41.1438C105.277 42.8538 105.329 44.5895 105.381 45.7852C105.394 46.1967 105.07 46.5181 104.668 46.5181H100.484C100.121 46.5181 99.8099 46.2481 99.771 45.8881L99.5896 44.2167H99.5249C98.3847 46.1324 96.3118 46.9038 94.3425 46.9038C90.3391 46.9038 87.0353 43.4709 87.0353 38.1224C87.0094 32.4009 90.65 29.1224 94.7052 29.1224C96.6098 29.1224 98.1645 29.6624 98.9289 30.7681H98.9937V22.6681C98.9937 22.2695 99.3176 21.9609 99.7062 21.9609H104.552H104.565ZM98.9937 36.8624C98.9937 36.6052 98.9937 36.3224 98.9548 36.0524C98.7345 34.8567 97.7888 33.8795 96.4672 33.8795C94.3554 33.8795 93.4226 35.7438 93.4226 37.9809C93.4226 40.5909 94.7182 41.9538 96.4413 41.9538C97.711 41.9538 98.6827 41.0667 98.903 39.9224C98.9807 39.5752 98.9937 39.1767 98.9937 38.7781V36.8624Z" fill="url(#paint6_linear_197_428)"/>
<path d="M113.802 29.507C114.125 29.507 114.411 29.7256 114.501 30.047L116.224 36.7327C116.574 38.1084 116.807 39.4199 117.028 40.7699H117.144C117.352 39.3684 117.559 38.1599 117.883 36.7327L119.463 30.0599C119.541 29.7384 119.826 29.507 120.163 29.507H125.177C125.669 29.507 126.019 29.9956 125.851 30.4584L120.137 46.0541C120.033 46.337 119.761 46.517 119.463 46.517H114.151C113.853 46.517 113.581 46.3241 113.478 46.0413L107.881 30.4456C107.712 29.9827 108.062 29.4941 108.554 29.4941H113.802V29.507Z" fill="url(#paint7_linear_197_428)"/>
<path d="M134.765 24.8146C134.765 26.4731 133.522 27.7589 131.526 27.7589C129.531 27.7589 128.365 26.4603 128.365 24.8146C128.365 23.1046 129.609 21.8574 131.565 21.8574C133.522 21.8574 134.74 23.1174 134.765 24.8146ZM128.417 45.8231V30.2146C128.417 29.816 128.741 29.5074 129.13 29.5074H133.988C134.39 29.5074 134.701 29.8289 134.701 30.2146V45.8103C134.701 46.2088 134.377 46.5174 133.988 46.5174H129.13C128.728 46.5174 128.417 46.196 128.417 45.8103V45.8231Z" fill="url(#paint8_linear_197_428)"/>
<path d="M154.886 29.5065C155.301 29.5065 155.625 29.8536 155.599 30.2651C155.547 31.2679 155.495 32.6179 155.495 34.7651V44.0608C155.495 47.0436 154.899 49.8593 152.813 51.6593C150.857 53.3179 148.24 53.7679 145.558 53.7679C143.459 53.7679 141.308 53.4079 139.741 52.7522C139.417 52.6236 139.261 52.2636 139.352 51.9293L140.168 48.6379C140.272 48.2136 140.738 47.9822 141.153 48.1622C142.241 48.6122 143.77 49.0365 145.312 49.0365C147.553 49.0365 149.302 47.8408 149.302 45.1922V44.4465H149.237C148.201 45.7579 146.646 46.3622 144.962 46.3622C140.751 46.3622 137.732 43.0322 137.732 38.0951C137.732 32.7208 141.205 29.1465 145.519 29.1465C147.618 29.1465 149.03 29.9565 149.937 31.3451H150.002L150.131 30.1622C150.17 29.8022 150.481 29.5322 150.844 29.5322H154.86L154.886 29.5065ZM149.211 36.5522C149.211 36.2822 149.186 35.9865 149.134 35.7422C148.862 34.5079 148.045 33.8008 146.905 33.8008C145.402 33.8008 144.107 35.2408 144.107 37.9665C144.107 40.1651 145.169 41.7979 146.905 41.7979C148.045 41.7979 148.875 41.0265 149.095 40.1136C149.186 39.7536 149.211 39.2136 149.211 38.8151V36.5522Z" fill="url(#paint9_linear_197_428)"/>
<path d="M169.242 46.5305L168.906 45.0391H168.789C167.597 46.4019 165.887 46.9162 164.034 46.9162C160.523 46.9162 158.359 44.4091 158.359 41.5676C158.359 37.0033 162.492 34.9719 168.323 34.9591V34.8048C168.323 34.1105 167.791 33.3519 165.511 33.3519C164.06 33.3519 162.544 33.7633 161.417 34.2519C161.015 34.4319 160.562 34.2133 160.445 33.7891L159.733 31.2433C159.642 30.9091 159.797 30.5491 160.121 30.4076C161.391 29.8419 163.619 29.1348 166.664 29.1348C172.572 29.1348 174.606 32.4005 174.606 36.6433V42.3905C174.606 43.6505 174.658 44.8462 174.762 45.7333C174.813 46.1576 174.477 46.5305 174.049 46.5305H169.229H169.242ZM168.53 38.7519C165.965 38.7519 164.513 39.4591 164.513 40.9505C164.513 42.0433 165.226 42.5962 166.288 42.5962C167.182 42.5962 168.154 41.9662 168.439 41.0276C168.504 40.7705 168.517 40.4619 168.517 40.1533V38.7648L168.53 38.7519Z" fill="url(#paint10_linear_197_428)"/>
<path d="M180.425 43.7794C180.852 43.9851 181.539 44.2037 182.239 44.2037C182.873 44.2037 183.197 43.9851 183.197 43.638C183.197 43.2908 182.886 43.1108 182.096 42.8408C180.917 42.4166 180.127 41.7737 180.127 40.7451C180.127 39.5108 181.176 38.5723 182.938 38.5723C183.78 38.5723 184.376 38.7266 184.83 38.9323L184.441 40.4237C184.143 40.2951 183.625 40.0894 182.925 40.0894C182.355 40.0894 182.044 40.2951 182.044 40.6037C182.044 40.9508 182.42 41.0923 183.301 41.4266C184.558 41.8894 185.128 42.558 185.128 43.5223C185.128 44.718 184.182 45.7466 182.148 45.7466C181.306 45.7466 180.49 45.528 180.088 45.3223L180.438 43.7923L180.425 43.7794Z" fill="#9DAAA1"/>
<path d="M186.125 38.6758H188.004V44.0629H190.698V45.6186H186.138V38.6758H186.125Z" fill="#9DAAA1"/>
<path d="M193.512 44.0115L193.123 45.6186H191.18L193.201 38.6758H195.701L197.787 45.6186H195.766L195.326 44.0115H193.512ZM195.066 42.6358L194.743 41.3886C194.639 41.0029 194.509 40.4244 194.393 40.0258H194.367C194.263 40.4372 194.16 41.0029 194.056 41.4015L193.758 42.6358H195.066Z" fill="#9DAAA1"/>
<path d="M204.589 43.1372C204.563 42.3529 204.55 41.4272 204.55 40.3344H204.524C204.304 41.2601 204.019 42.2886 203.786 43.0601L203.086 45.4772H201.622L201.039 43.0601C200.857 42.3144 200.65 41.2858 200.482 40.3344H200.456C200.417 41.3115 200.378 42.3529 200.352 43.1372L200.249 45.6186H198.525L198.953 38.6758H201.479L201.946 40.5401C202.14 41.3115 202.347 42.2372 202.49 43.0858H202.529C202.723 42.2372 202.956 41.2601 203.164 40.5272L203.695 38.6758H206.156L206.506 45.6186H204.692L204.615 43.1372H204.589Z" fill="#9DAAA1"/>
<defs>
<linearGradient id="paint0_linear_197_428" x1="18.9539" y1="29.5083" x2="18.9539" y2="13.7583" gradientUnits="userSpaceOnUse">
<stop stop-color="#77C791"/>
<stop offset="0.27" stop-color="#8AC89E"/>
<stop offset="0.8" stop-color="#BBCDC0"/>
<stop offset="1" stop-color="#CFCFCF"/>
</linearGradient>
<linearGradient id="paint1_linear_197_428" x1="21.5448" y1="21.8844" x2="21.5448" y2="0.00157115" gradientUnits="userSpaceOnUse">
<stop stop-color="#76CF92"/>
<stop offset="0.18" stop-color="#7CC990"/>
<stop offset="0.43" stop-color="#8EBA8D"/>
<stop offset="0.72" stop-color="#ABA088"/>
<stop offset="1" stop-color="#CF8282"/>
</linearGradient>
<linearGradient id="paint2_linear_197_428" x1="28.4396" y1="54.1301" x2="28.4396" y2="23.543" gradientUnits="userSpaceOnUse">
<stop stop-color="#1A4147"/>
<stop offset="0.2" stop-color="#2A5453"/>
<stop offset="0.6" stop-color="#548573"/>
<stop offset="1" stop-color="#84BD98"/>
</linearGradient>
<linearGradient id="paint3_linear_197_428" x1="5.73883" y1="47.6351" x2="19.1111" y2="20.0144" gradientUnits="userSpaceOnUse">
<stop stop-color="#25362B"/>
<stop offset="0.23" stop-color="#31473E"/>
<stop offset="0.7" stop-color="#52756F"/>
<stop offset="0.95" stop-color="#66918C"/>
</linearGradient>
<linearGradient id="paint4_linear_197_428" x1="59.3474" y1="47.6407" x2="61.2542" y2="21.5324" gradientUnits="userSpaceOnUse">
<stop stop-color="#789080"/>
<stop offset="0.759615" stop-color="#C8C1C1"/>
</linearGradient>
<linearGradient id="paint5_linear_197_428" x1="75.8993" y1="47.7616" x2="77.2794" y2="27.846" gradientUnits="userSpaceOnUse">
<stop stop-color="#789080"/>
<stop offset="0.759615" stop-color="#C8C1C1"/>
</linearGradient>
<linearGradient id="paint6_linear_197_428" x1="96.1234" y1="48.0897" x2="98.5453" y2="20.2295" gradientUnits="userSpaceOnUse">
<stop stop-color="#789080"/>
<stop offset="0.759615" stop-color="#C8C1C1"/>
</linearGradient>
<linearGradient id="paint7_linear_197_428" x1="116.782" y1="47.3264" x2="117.933" y2="28.2381" gradientUnits="userSpaceOnUse">
<stop stop-color="#789080"/>
<stop offset="0.759615" stop-color="#C8C1C1"/>
</linearGradient>
<linearGradient id="paint8_linear_197_428" x1="131.536" y1="47.6899" x2="137.982" y2="21.5254" gradientUnits="userSpaceOnUse">
<stop stop-color="#789080"/>
<stop offset="0.759615" stop-color="#C8C1C1"/>
</linearGradient>
<linearGradient id="paint9_linear_197_428" x1="146.584" y1="54.9386" x2="149.006" y2="27.4429" gradientUnits="userSpaceOnUse">
<stop stop-color="#789080"/>
<stop offset="0.759615" stop-color="#C8C1C1"/>
</linearGradient>
<linearGradient id="paint10_linear_197_428" x1="166.487" y1="47.7616" x2="167.867" y2="27.846" gradientUnits="userSpaceOnUse">
<stop stop-color="#789080"/>
<stop offset="0.759615" stop-color="#C8C1C1"/>
</linearGradient>
</defs>
</svg>
